<svg id="图层_3" data - name="图层 3" xmlns="http://www.w3.org/2000/svg" viewBox="0 0 135.11 131">
  <defs>
    <style> .cls-1 { fill: #0085e1;}</style>
      </defs>
      <title>logo</title>
      <path class="cls-1" d="M1525.88,394h-92.57a1.89,1.89,0,0,0-2,1.78v42.8a1.89,1.89,0,0,0,2,1.78H1477a1.89,1.89,0,0,1,2,1.78V463a1.89,1.89,0,0,1-2,1.78h-38.78a2.09,2.09,0,0,1-1.2-.36,16.59,16.59,0,0,1-5.24-6.62.6.6,0,0,0-1.06.32v16a1.89,1.89,0,0,0,2,1.78h56.84a1.89,1.89,0,0,0,2-1.78V430.84a1.89,1.89,0,0,0-2-1.78h-43.68a1.89,1.89,0,0,1-2-1.78V407.09a1.89,1.89,0,0,1,2-1.78h58.09a1.89,1.89,0,0,1,2,1.78v79.74a1.65,1.65,0,0,1-.44,1.13,12.78,12.78,0,0,1-3.06,2.21c-3.53,2-8.85,4-14.48,6.17-9.27,3.52-19.54,7.42-28,13.23a2.16,2.16,0,0,1-2.36,0c-8.24-5.26-17.79-8.52-26.41-11.46-9.91-3.38-19.26-6.58-19.26-10.84V395.78a1.89,1.89,0,0,0-2-1.78h-18a.52.52,0,0,0-.35,1,18.54,18.54,0,0,1,7.39,4.78,1.64,1.64,0,0,1,.39,1.08V487.3c0,12.07,13.91,16.82,27.36,21.41,9.58,3.27,20.44,7,27.9,13.26l3,2.55a2.14,2.14,0,0,0,2.75,0l2.93-2.64c7.45-6.72,19.13-11.16,29.45-15.08,13.77-5.23,25.66-9.75,25.66-19.46V400.82a1.64,1.64,0,0,1,.39-1.08,18.54,18.54,0,0,1,7.39-4.78A.52.52,0,0,0,1525.88,394Z"
        transform="translate(-1391.36 -394)" />
      </svg>
