<svg id="图层_2" data-name="图层 2" xmlns="http://www.w3.org/2000/svg" viewBox="0 0 357.11 88.79"><defs><style>.cls-1{fill:#0085e1;}</style></defs><title>52ABP</title><path class="cls-1" d="M1333.8,415.48h-50.94a1.89,1.89,0,0,0-2,1.78v50a1.89,1.89,0,0,0,2,1.78h39.66a1.89,1.89,0,0,1,2,1.78v17.85a1.89,1.89,0,0,1-2,1.78h-35.7c-4-1.78-5.22-7.17-5.22-7.17a.4.4,0,0,0-.71.21v7h0V502a1.89,1.89,0,0,0,2,1.78h50.94a1.89,1.89,0,0,0,2-1.78V457.42a1.89,1.89,0,0,0-2-1.78h-39.66a1.89,1.89,0,0,1-2-1.78v-23.2a1.89,1.89,0,0,1,2-1.78h37.12c3,1.78,4,7.17,4,7.17.17.27.54.13.54-.21v-7h0v-11.6A1.89,1.89,0,0,0,1333.8,415.48Z" transform="translate(-1280.89 -415.03)"/><path class="cls-1" d="M1398.09,415.48h-50.94a1.89,1.89,0,0,0-2,1.78v11.6h0v7c0,.34.37.49.54.21,0,0,1-5.39,4-7.17h37.12a1.89,1.89,0,0,1,2,1.78v23.2a1.89,1.89,0,0,1-2,1.78h-39.66a1.89,1.89,0,0,0-2,1.78V502a1.89,1.89,0,0,0,2,1.78h50.94a1.89,1.89,0,0,0,2-1.78v-11.6h0v-7a.4.4,0,0,0-.71-.21s-1.27,5.39-5.22,7.17h-35.7a1.89,1.89,0,0,1-2-1.78V470.8a1.89,1.89,0,0,1,2-1.78h39.66a1.89,1.89,0,0,0,2-1.78v-50A1.89,1.89,0,0,0,1398.09,415.48Z" transform="translate(-1280.89 -415.03)"/><path class="cls-1" d="M1491.71,502.73c-3.3-1.68-9.5-6-13-16.14L1455.56,415H1440.3l-23.81,71c-1.77,4.45-2.69,7.87-4.56,10.27-1.73,3.1-5.74,5.41-8,6.54a.41.41,0,0,0,.21.77H1435a.32.32,0,0,0,.2-.59c-1.09-.71-5.34-3-8.28-4.54a3.59,3.59,0,0,1-1.63-4.59c1.72-4,4.63-10.89,5.44-13.07l2.31-6.29h26.76l2.51,8.28c.33,1,2.82,8.54,4,12.18a2.8,2.8,0,0,1-1,3.16,69.81,69.81,0,0,1-6.68,4.32.6.6,0,0,0,.31,1.14h32.53A.49.49,0,0,0,1491.71,502.73ZM1434.89,469l12.59-41.4,10.91,41.4Z" transform="translate(-1280.89 -415.03)"/><path class="cls-1" d="M1561.17,416.06H1496c-.44,0-.64.47-.3.72,1.69,1.21,5.14,3.68,7.43,5.29a3.44,3.44,0,0,1,1.13,1.25,8.87,8.87,0,0,1,.73,2.34,39.71,39.71,0,0,1,.37,6.45v55.52a37.66,37.66,0,0,1-.48,7.06c-.82,3.22-6.88,6.51-10.12,8.06-.52.25-.31.92.28.92h66.1a1.86,1.86,0,0,0,2-1.71v-38a1.53,1.53,0,0,0-.25-.84l-3.24-2.56a1.51,1.51,0,0,1-.08-1.55l3.39-4a1.52,1.52,0,0,0,.18-.71V417.77A1.86,1.86,0,0,0,1561.17,416.06Zm-11.73,75.56a1.86,1.86,0,0,1-2,1.71h-28.19a1.86,1.86,0,0,1-2-1.71V466.54a1.86,1.86,0,0,1,2-1.71h28.19a1.86,1.86,0,0,1,2,1.71Zm0-40.29a1.86,1.86,0,0,1-2,1.71h-28.19a1.86,1.86,0,0,1-2-1.71v-24.7a1.86,1.86,0,0,1,2-1.71h28.19a1.86,1.86,0,0,1,2,1.71Z" transform="translate(-1280.89 -415.03)"/><path class="cls-1" d="M1636,416.06h-59.75a.39.39,0,0,0-.25.72c1.62,1,4.56,2.74,7.13,4.51a6.81,6.81,0,0,1,2.92,4.32v0a39.72,39.72,0,0,1,.37,6.45v55.52c0,3.17-.44,5.5-.48,7.06-.09,3.58-6.31,6.47-8.48,7.88-.54.35-.25,1.1.43,1.1h32.48a.55.55,0,0,0,.37-1c-1.82-1.16-7.09-2.7-8.47-5.63a15.16,15.16,0,0,1-1.48-3.56,29.91,29.91,0,0,1-.48-6v-20.7a1.89,1.89,0,0,1,2-1.78c5.84.07,28.23,0,33.71,0a1.88,1.88,0,0,0,2-1.78V417.84A1.89,1.89,0,0,0,1636,416.06Zm-8.66,35.81a1.89,1.89,0,0,1-2,1.78H1602.3a1.89,1.89,0,0,1-2-1.78V428a1.89,1.89,0,0,1,2-1.78h23.08a1.89,1.89,0,0,1,2,1.78Z" transform="translate(-1280.89 -415.03)"/></svg>
