<svg id="图层_9" data-name="图层 9" xmlns="http://www.w3.org/2000/svg" viewBox="0 0 163.41 174"><title>52-盾牌</title><path d="M725.78,492C716.25,503.25,696,524,647,524.9c0,22.51.87,33.76,4.33,49.34C667,545,688,531,708,526,711.46,519.07,725.78,492,725.78,492Z" transform="translate(-647 -492)"/><path d="M663,572a140.79,140.79,0,0,1-9.07,10.9c15.58,37.22,19.91,46.75,71.85,83.1-1.78-6-4.18-11.21-6.78-19C681,624,663,572,663,572Z" transform="translate(-647 -492)"/><path d="M732.7,495.46c6.93,7.79,42.67,33.33,77.3,25.54,6.06,95.22-56.52,131.15-79,145,0,0-5.24-14.67-7-19,17.31-5.19,72.13-27.22,73-106-13.85,2.6-51.9-2.36-77-24C724.33,509.21,732.7,495.46,732.7,495.46Z" transform="translate(-647 -492)"/><path d="M690.59,554.74h24.5a18.54,18.54,0,0,0,6-.64,2.61,2.61,0,0,0,1.67-2.53q0-.48-.35-.53-.13,0-.48.35a2,2,0,0,1-3.26-1.5q0-2,2.11-2a3.9,3.9,0,0,1,3,1.67,5.71,5.71,0,0,1,1.36,3.69,6.67,6.67,0,0,1-3.74,6.31q-3.74,2-11.79,2H694.55v14.91l.75-.57a16.26,16.26,0,0,1,1.72-1.23l1.19-.62a19,19,0,0,1,9-2.16q9.5,0,15.31,5.59t5.81,14.69q0,9.33-6,14.74t-16.47,5.41q-8.53,0-14-3.85a15.59,15.59,0,0,1-6.64-10.58l.57-.31a54.6,54.6,0,0,0,9.68-5.81,29.7,29.7,0,0,0-.4,4.71q0,5.85,3,9.08t8.38,3.23a10.85,10.85,0,0,0,9.28-4.66q3.39-4.66,3.39-12.8,0-7.57-3.3-11.61t-9.41-4q-8,0-12.84,7.57l-2.82-1.72Zm16.14,23.36" transform="translate(-647 -492)"/><path d="M771,598v12.32H730.09a31.08,31.08,0,0,1,5.7-12.45,45,45,0,0,1,11.81-10.16q6.95-4.35,9.33-6.91a17.44,17.44,0,0,0,4.71-12.1q0-5.45-3.14-8.58T749.84,557a11.4,11.4,0,0,0-7.76,2.66,8.56,8.56,0,0,0-3.06,6.75,7.87,7.87,0,0,0,1.94,5.43,6.25,6.25,0,0,0,4.88,2.18,7.41,7.41,0,0,0,5.41-2.64l.7.4a8.77,8.77,0,0,1-3.1,5.52,9.32,9.32,0,0,1-6.14,2.09,11.55,11.55,0,0,1-8.34-3.14,10.59,10.59,0,0,1-3.28-8,13,13,0,0,1,5.26-10.62q5.26-4.2,13.22-4.2a22.3,22.3,0,0,1,14.56,4.84q5.94,4.84,5.94,11.83,0,10.16-14.3,18.08l-6.73,3.69a30,30,0,0,0-11.79,11.79L737,604h18.17q8.4,0,11.17-1.12t3.74-4.9Z" transform="translate(-647 -492)"/></svg>