<svg id="图层_8" data-name="图层 8" xmlns="http://www.w3.org/2000/svg" viewBox="0 0 159.53 178.64"><title>52-六边形</title><path d="M801.79,527.75,740,492.09a18,18,0,0,0-18,0l-61.77,35.66a18,18,0,0,0-9,15.59v71.32a18,18,0,0,0,9,15.59L722,665.91a18,18,0,0,0,18,0l61.77-35.66a18,18,0,0,0,9-15.59V543.34A18,18,0,0,0,801.79,527.75ZM723,611.7q-7.63,6.82-20.78,6.83-10.77,0-17.7-4.86a19.67,19.67,0,0,1-8.38-13.34l.72-.39a68.85,68.85,0,0,0,12.21-7.32,37.43,37.43,0,0,0-.5,5.94q0,7.38,3.75,11.46t10.57,4.08a13.69,13.69,0,0,0,11.71-5.88q4.27-5.88,4.27-16.15,0-9.54-4.16-14.65t-11.87-5.1q-10,0-16.2,9.54l-3.55-2.16V545.89H714q5.55,0,7.55-.8a3.29,3.29,0,0,0,2.11-3.19q.05-.61-.44-.67c-.11,0,.63-3.29,1.78-1.89a7.21,7.21,0,0,1,1.72,4.66,8.42,8.42,0,0,1-4.72,8q-4.72,2.53-14.87,2.52h-19V573.3l.94-.72a20.67,20.67,0,0,1,2.16-1.55l1.5-.78A23.91,23.91,0,0,1,704,567.53q12,0,19.31,7t7.32,18.53Q730.62,604.87,723,611.7Zm62,2.93H733.4a39.21,39.21,0,0,1,7.19-15.7q5.19-6.71,14.9-12.82l11.76-8.71a22,22,0,0,0,5.94-15.26q0-6.88-4-10.82t-10.9-3.94a14.38,14.38,0,0,0-9.79,3.36,10.8,10.8,0,0,0-3.86,8.52,9.93,9.93,0,0,0,2.44,6.85,7.89,7.89,0,0,0,6.16,2.75,9.34,9.34,0,0,0,6.83-3.33l.89.5a11.07,11.07,0,0,1-3.91,7,11.76,11.76,0,0,1-7.74,2.64,14.56,14.56,0,0,1-10.51-4,13.36,13.36,0,0,1-4.13-10.07,16.45,16.45,0,0,1,6.63-13.4q6.63-5.3,16.67-5.3,10.87,0,18.37,6.1t7.49,14.93q0,12.82-18,22.81l-8.49,4.66a37.81,37.81,0,0,0-14.87,14.87l-.28.44h22.92q10.6,0,14.09-1.42t4.72-6.19H785Z" transform="translate(-651.26 -489.68)"/></svg>