<svg id="图层_4" data-name="图层 4" xmlns="http://www.w3.org/2000/svg" viewBox="0 0 212.64 207.13"><title>logo-52</title><defs><style>.cls-1{fill:#FFFAFA;}</style></defs><path  class="cls-1" d="M1550.36,690H1341a1.46,1.46,0,0,0-1,2.65s12,3.87,20,12.68v145h0c.59,14.7,20.24,20.6,39.27,26.29,13.76,4.12,29.36,8.79,40.06,16.7l4.35,3.21a3.4,3.4,0,0,0,3.95-.05l4.21-3.33c10.69-8.46,27.48-14.06,42.29-19,19.25-6.42,35.94-12.55,36.81-24.15h0v-7h-14v6c0,.52-6.54,3-9,4.21-5.07,2.53-12.71,5.07-20.8,7.77-13.3,4.43-28.06,9.35-40.2,16.66a3.46,3.46,0,0,1-3.39,0c-11.83-6.62-25.54-10.73-37.92-14.44C1391.44,859,1376,855,1376,849.64V706h139V818.43h-51.57a1.89,1.89,0,0,1-2-1.78V787.8a1.89,1.89,0,0,1,2-1.78h39.66a1.89,1.89,0,0,0,2-1.78v-58a1.89,1.89,0,0,0-2-1.78H1388.86a1.89,1.89,0,0,0-2,1.78v58a1.89,1.89,0,0,0,2,1.78h39.66a1.89,1.89,0,0,1,2,1.78v28.85a1.89,1.89,0,0,1-2,1.78h-41.63V830a1.89,1.89,0,0,0,2,1.78h50.94a1.89,1.89,0,0,0,2-1.78V774.42a1.89,1.89,0,0,0-2-1.78h-39.66a1.89,1.89,0,0,1-2-1.78v-31.2a1.89,1.89,0,0,1,2-1.78h91.66a1.89,1.89,0,0,1,2,1.78v31.2a1.89,1.89,0,0,1-2,1.78h-39.66a1.89,1.89,0,0,0-2,1.78V830a1.89,1.89,0,0,0,2,1.78h76.94a1.89,1.89,0,0,0,2-1.78v-11.6H1531V705.73c8-9.09,20.34-13.08,20.34-13.08A1.46,1.46,0,0,0,1550.36,690Z" transform="translate(-1339.36 -690)"/></svg>
