<svg id="图层_6" data-name="图层 6" xmlns="http://www.w3.org/2000/svg" viewBox="0 0 509.64 207.13"><title>logo-52abp(没尾巴)</title><defs><style>.cls-1{fill:#FFFAFA;}</style></defs><path  class="cls-1"  d="M1469.46,831.41a.76.76,0,0,1-.38-1.44c3.22-1.69,8.17-4.56,9.67-7.06.67-1.17-.33-8.52-.78-10.66s-1.08-4.54-1.92-7.2l-3.08-10.5h-37.72l-2.83,8a78.44,78.44,0,0,0-2.83,9.11,26.82,26.82,0,0,0-.67,5.61c0,3.26,2.31,5.33,3.65,7.16s5.69,4.84,7.78,6.25a.41.41,0,0,1-.24.74h-37.93a.52.52,0,0,1-.25-1c2.82-1.44,7.73-4.37,9.86-8.3,2.3-3,3.43-7.38,5.6-13L1446.6,719h18.72l28.33,90.73c4.36,12.82,12,18.35,16,20.48a.62.62,0,0,1-.31,1.17Zm-32-43.94h33.72L1455.4,735Z" transform="translate(-1191.36 -690)"/><path d="M1519.77,831.41c-.75,0-1-.85-.36-1.17,4.11-2,11.8-6.14,12.83-10.22a47.76,47.76,0,0,0,.61-9V740.68a50.35,50.35,0,0,0-.47-8.18,11.24,11.24,0,0,0-.93-3,4.37,4.37,0,0,0-1.44-1.58c-2.9-2-7.28-5.17-9.42-6.7-.43-.31-.18-.91.38-.91h82.6a2.36,2.36,0,0,1,2.51,2.17v46.25a1.92,1.92,0,0,1-.22.9l-4.3,5.11a1.91,1.91,0,0,0,.1,2l4.1,3.24a2,2,0,0,1,.32,1.06v48.22a2.36,2.36,0,0,1-2.51,2.17Zm68.94-66.36V733.73a2.36,2.36,0,0,0-2.51-2.17h-35.75a2.36,2.36,0,0,0-2.51,2.17v31.32a2.36,2.36,0,0,0,2.51,2.17h35.75A2.36,2.36,0,0,0,1588.71,765.05Zm-38.25,53.26h35.75a2.36,2.36,0,0,0,2.51-2.17v-31.8a2.36,2.36,0,0,0-2.51-2.17h-35.75a2.36,2.36,0,0,0-2.51,2.17v31.8A2.36,2.36,0,0,0,1550.45,818.31Z" transform="translate(-1191.36 -690)"/><path d="M1653.23,810.82a37.92,37.92,0,0,0,.61,7.65,19.22,19.22,0,0,0,1.88,4.52c1.74,3.72,8.43,5.67,10.74,7.14a.7.7,0,0,1-.47,1.28h-41.18c-.86,0-1.24-.95-.55-1.4,2.75-1.79,10.64-5.46,10.76-10,.05-2,.61-4.94.61-9V740.68a50.35,50.35,0,0,0-.47-8.18v-.05a8.63,8.63,0,0,0-3.7-5.48c-3.26-2.25-7-4.51-9-5.72a.49.49,0,0,1,.31-.91h75.76a2.39,2.39,0,0,1,2.51,2.26V780a2.39,2.39,0,0,1-2.49,2.26c-7,0-35.35.13-42.75,0a2.39,2.39,0,0,0-2.54,2.26Zm2.51-42.82H1685a2.39,2.39,0,0,0,2.51-2.26V735.46a2.39,2.39,0,0,0-2.51-2.26h-29.27a2.39,2.39,0,0,0-2.51,2.26v30.27A2.39,2.39,0,0,0,1655.74,768Z" transform="translate(-1191.36 -690)"/><path d="M1402.36,690H1193a1.46,1.46,0,0,0-1,2.65s12,3.87,20,12.68v145h0c.59,14.7,20.24,20.6,39.27,26.29,13.76,4.12,29.36,8.79,40.06,16.7l4.35,3.21a3.4,3.4,0,0,0,3.95-.05l4.21-3.33c10.69-8.46,27.48-14.06,42.29-19,19.25-6.42,35.94-12.55,36.81-24.15h0v-7h-14v6c0,.52-6.54,3-9,4.21-5.07,2.53-12.71,5.07-20.8,7.77-13.3,4.43-28.06,9.35-40.2,16.66a3.46,3.46,0,0,1-3.39,0c-11.83-6.62-25.54-10.73-37.92-14.44C1243.44,859,1228,855,1228,849.64V706h139V818.43h-51.57a1.89,1.89,0,0,1-2-1.78V787.8a1.89,1.89,0,0,1,2-1.78h39.66a1.89,1.89,0,0,0,2-1.78v-58a1.89,1.89,0,0,0-2-1.78H1240.86a1.89,1.89,0,0,0-2,1.78v58a1.89,1.89,0,0,0,2,1.78h39.66a1.89,1.89,0,0,1,2,1.78v28.85a1.89,1.89,0,0,1-2,1.78h-41.63V830a1.89,1.89,0,0,0,2,1.78h50.94a1.89,1.89,0,0,0,2-1.78V774.42a1.89,1.89,0,0,0-2-1.78h-39.66a1.89,1.89,0,0,1-2-1.78v-31.2a1.89,1.89,0,0,1,2-1.78h91.66a1.89,1.89,0,0,1,2,1.78v31.2a1.89,1.89,0,0,1-2,1.78h-39.66a1.89,1.89,0,0,0-2,1.78V830a1.89,1.89,0,0,0,2,1.78h76.94a1.89,1.89,0,0,0,2-1.78v-11.6H1383V705.73c8-9.09,20.34-13.08,20.34-13.08A1.46,1.46,0,0,0,1402.36,690Z" transform="translate(-1191.36 -690)"/></svg>
