<svg id="图层_8" data-name="图层 8" xmlns="http://www.w3.org/2000/svg" viewBox="0 0 441.74 178.64">
  <title>52-六边形全</title>
  <defs><style>.cls-1{fill:#0085e1;}</style></defs>
  <path class="cls-1"  d="M660.79,527.75,599,492.09a18,18,0,0,0-18,0l-61.77,35.66a18,18,0,0,0-9,15.59v71.32a18,18,0,0,0,9,15.59L581,665.91a18,18,0,0,0,18,0l61.77-35.66a18,18,0,0,0,9-15.59V543.34A18,18,0,0,0,660.79,527.75ZM582,611.7q-7.63,6.82-20.78,6.83-10.77,0-17.7-4.86a19.67,19.67,0,0,1-8.38-13.34l.72-.39a68.85,68.85,0,0,0,12.21-7.32,37.43,37.43,0,0,0-.5,5.94q0,7.38,3.75,11.46t10.57,4.08a13.69,13.69,0,0,0,11.71-5.88q4.27-5.88,4.27-16.15,0-9.54-4.16-14.65t-11.87-5.1q-10,0-16.2,9.54l-3.55-2.16V545.89H573q5.55,0,7.55-.8a3.29,3.29,0,0,0,2.11-3.19q.05-.61-.44-.67c-.11,0,.63-3.29,1.78-1.89a7.21,7.21,0,0,1,1.72,4.66,8.42,8.42,0,0,1-4.72,8q-4.72,2.53-14.87,2.52h-19V573.3l.94-.72a20.67,20.67,0,0,1,2.16-1.55l1.5-.78A23.91,23.91,0,0,1,563,567.53q12,0,19.31,7t7.32,18.53Q589.62,604.87,582,611.7Zm62,2.93H592.4a39.21,39.21,0,0,1,7.19-15.7q5.19-6.71,14.9-12.82l11.76-8.71a22,22,0,0,0,5.94-15.26q0-6.88-4-10.82t-10.9-3.94a14.38,14.38,0,0,0-9.79,3.36,10.8,10.8,0,0,0-3.86,8.52,9.93,9.93,0,0,0,2.44,6.85,7.89,7.89,0,0,0,6.16,2.75,9.34,9.34,0,0,0,6.83-3.33l.89.5a11.07,11.07,0,0,1-3.91,7,11.76,11.76,0,0,1-7.74,2.64,14.56,14.56,0,0,1-10.51-4,13.36,13.36,0,0,1-4.13-10.07,16.45,16.45,0,0,1,6.63-13.4q6.63-5.3,16.67-5.3,10.87,0,18.37,6.1t7.49,14.93q0,12.82-18,22.81l-8.49,4.66a37.81,37.81,0,0,0-14.87,14.87l-.28.44h22.92q10.6,0,14.09-1.42t4.72-6.19H644Z"
    transform="translate(-510.26 -489.68)" />
  <path class="cls-1"  d="M752.7,535.64l-7.19,8.16,11.33,30.13,2.76-1.52s2.46-1.7,2.56-1.8l2.28-1.93a19.91,19.91,0,0,0,2.63-2.35,47.9,47.9,0,0,0,5.53,14.1q-2-.14-2.9-.14-6.57,0-9.61,2.07l12.51,33.93,10.37,8h-34.9l9.54-8-7.67-20.18-1.87-4.7a61.41,61.41,0,0,0-13.61,15.9l-1.24-2q-3.59-5.73-9.19-13.06l-2.21-2.42-3-3.18q-.9,2.21-2.28,6.5l-2.28,7a31.33,31.33,0,0,0-1.87,9.4,14,14,0,0,0,1.31,6.43,34.35,34.35,0,0,0,5.53,7q.41.41,1.24,1.31H685.87a41.14,41.14,0,0,0,15.65-13.75q5.77-8.64,11.44-26.68l.28-1q-3.66-3.11-10.57-3.8a49.63,49.63,0,0,0,5.87-11.82l1.17,1.11,3.11,2.9a35.15,35.15,0,0,0,3.8,3.11l2.14-5,9.4-25.85-7.33-7.88Zm-14.65,55a61.53,61.53,0,0,1,7-7.39l-9.47-25.43-1.17-2.7-1.94-5.32-11,29a96.28,96.28,0,0,1,9.05,10.64l3.18,4.42s.28.35.69.9a5.48,5.48,0,0,0,.69-.76l1-1.17c.14-.18.76-.9.76-.9"
    transform="translate(-510.26 -489.68)" />
  <path  class="cls-1" d="M792.63,545a65.55,65.55,0,0,1,36.91-10.85q14.86,0,24.26,6.67t9.4,17.24q0,14.1-16.31,18.87v.76h0a25.47,25.47,0,0,1,7.43,3.2c3.32,2.11,8.06,5.38,9.64,7.78a23,23,0,0,1,3.77,12.92q0,10.3-7.46,16.48t-19.9,6.19H790.9l9.54-8.16V580.77h-1.73q-3.87,0-9.74.55l3-6.63,1.11.07q2.7.21,4.08.21a19.68,19.68,0,0,1,3.25.21v-26Zm21.63-1v31.17q.76-.07,1-.07l1.24.07h5.94q13.2,0,19.66-4.39t6.46-13.44a16.51,16.51,0,0,0-5.36-12.82q-5.36-4.87-14.06-4.87A28.66,28.66,0,0,0,814.26,544Zm0,36.84v38.08h7.53l10-.35q19.49-1.38,19.49-18.94,0-11-6.43-15t-24.05-4Q819.09,580.56,814.26,580.83Z"
    transform="translate(-510.26 -489.68)" />
  <path  class="cls-1" d="M882.2,535.64h31q19.76,0,28.13,5.46,10.64,6.84,10.64,19A20.88,20.88,0,0,1,947.93,573a22.61,22.61,0,0,1-11.4,7.88q-7.33,2.42-23.29,2.42h-8.5V616.7l8.43,7.6H881l9.61-8.09v-33a20.34,20.34,0,0,0-2.14-.21q-7.4,0-11.82,3.59l-.69-1q4.21-7.74,13.55-7.74h1.11V544Zm22.53,7.12v34.62h.9l1.8.07a9,9,0,0,0,.9-.07h1.94q13.68,0,20.08-4t6.39-12.58q0-9.6-5.7-14t-18.35-4.35Q909.43,542.48,904.73,542.75Z"
    transform="translate(-510.26 -489.68)" />
</svg>
