<svg id = "图层_5"
data-name = "图层 5"
xmlns = "http://www.w3.org/2000/svg"
viewBox = "0 0 525.43 207.13" >
 <title > logo - 52 abp(尾巴) </title><defs><style>.cls-1{fill:#FFFAFA;}</style > </defs>
 <path  class="cls-1"  d="M1394.36,690H1185a1.46,1.46,0,0,0-1,2.65s12,3.87,20,12.68v145h0c.59,14.7,20.24,20.6,39.27,26.29,13.76,4.12,29.36,8.79,40.06,16.7l4.35,3.21a3.4,3.4,0,0,0,3.95-.05l4.21-3.33c10.69-8.46,27.48-14.06,42.29-19,19.25-6.42,35.94-12.55,36.81-24.15h0V837h-20v6a5.46,5.46,0,0,1-3,4.21c-5.07,2.53-12.71,5.07-20.8,7.77-13.3,4.43-28,9.35-40.18,16.66a3.37,3.37,0,0,1-3.4.05c-11.83-6.63-25.54-10.73-37.92-14.44C1235.44,853,1226,849,1226,843.64V713h128V816.65h-46.75a1.8,1.8,0,0,1-1.8-1.8v-27a1.89,1.89,0,0,1,2-1.78h37.66a1.89,1.89,0,0,0,2-1.78v-58a1.89,1.89,0,0,0-2-1.78H1235.86a1.89,1.89,0,0,0-2,1.78v58a1.89,1.89,0,0,0,2,1.78h32.66a1.89,1.89,0,0,1,2,1.78v27a1.8,1.8,0,0,1-1.8,1.8h-34.81V830a1.89,1.89,0,0,0,2,1.78h45.94a1.89,1.89,0,0,0,2-1.78V774.42a1.89,1.89,0,0,0-2-1.78h-32.66a1.89,1.89,0,0,1-2-1.78v-30.2a1.89,1.89,0,0,1,2-1.78h81.66a1.89,1.89,0,0,1,2,1.78v30.2a1.89,1.89,0,0,1-2,1.78h-36.66a1.89,1.89,0,0,0-2,1.78V830a1.89,1.89,0,0,0,2,1.78h78.94a1.89,1.89,0,0,0,2-1.78v-11.6H1375V705.73c8-9.09,20.34-13.08,20.34-13.08A1.46,1.46,0,0,0,1394.36,690Z" transform="translate(-1183.36 -690)"/>

  <path class="cls-1"  d = "M1525.53,816.64c0,4.75,3.11,7.36,9.65,7.36,21.27,0,79.69-15.22,79.69-50.56,0-10.47-10.31-20.62-25.53-20.62-2,0-3.6.16-5.56.33v-.33c12.11-5.24,18.16-13.42,18.16-23.07,0-8.35-9.16-13.91-21.6-13.91-10.64,0-26.84,3.44-36.16,7.2.16-2.78-2.62-4.91-6.38-4.91-5.07,0-10.64,2.13-10.64,7.85a9.59,9.59,0,0,0,1.47,5.07v79.53C1527,811.24,1525.53,813.69,1525.53,816.64Zm18.82-80c6.87-3.93,21.76-7.85,29.94-7.85,9.49,0,11.78,2.62,11.78,5.89,0,9.65-23.56,20.13-41.73,21.11Zm0,36.65c0-2.29,1.47-3.44,5.89-5.07a105.9,105.9,0,0,1,28.8-4.75c13.91,0,19.47,6.87,19.47,12.11,0,19.31-33.05,31.75-54.16,33.54Z"
transform = "translate(-1183.36 -690)" />
<path class="cls-1" d = "M1631.72,750.69v60.22a7.38,7.38,0,0,0-2,5.4c0,3.6,2.95,6.87,8.35,6.87,9.33,0,11.13-1.31,11.13-7.2a7.7,7.7,0,0,0-1.8-4.25V778.35c36.49-5.73,61.36-26,61.36-44,0-10.64-7.69-17.35-22.91-17.35-18.33,0-29.29,6.22-38.62,11v-2c1.31-5.24-1.8-8.35-8-8.35-3.27,0-8.35,2.95-8.35,7a11.2,11.2,0,0,0,.82,4.42V735c-2.62,1.47-4.58,4.25-4.58,8.67S1629.1,750.36,1631.72,750.69Zm15.71-8.35c12.6-7.85,23.07-11.29,33.38-11.29,7.85,0,11.62,3.44,11.62,6.87.16,9.49-16.2,22.58-45,26.84Z"
transform = "translate(-1183.36 -690)" />
<path class="cls-1" d = "M1692.2,829.18c-41.35,8.42-93.25,7.64-131.14,7.07-8.36-.13-16.26-.25-23.06-.25-7.5,0-19.55,0-28.87-15.22-3.64-10-10.84-25.42-20.53-45.19-4.83-10.64-21.66-42.16-21.66-48.15,0-2.71,1.35-3.87,1.35-7.16s-3.48-7.35-10.06-7.35c-7.15,0-11.6,6.19-11.22,13.15-.77,3.87-2.71,8.51-6.77,15.86l-33.84,66.33c-7,14.31-10.44,21.27-10.44,25.53,0,4.64,2.9,8.9,10.06,8.9,8.9,0,11.41-3.87,11.41-8.12a42.46,42.46,0,0,1,.39-8.51c.39-3.09,2.51-7.16,13-27.85l47.76-3.09C1489.37,819.1,1488,818,1489,821a1.39,1.39,0,0,0,.36.49,9,9,0,0,0,.47,1.28C1504.24,854,1528.77,854,1538,854c6.66,0,14.5.12,22.79.24,10.34.16,21.7.33,33.63.33,32.72,0,69.68-1.29,101.38-7.75a9,9,0,1,0-3.59-17.64Zm-253.89-46.24,18.18-38.09,15.66,35.77Z"
transform = "translate(-1183.36 -690)" /> </svg>
